<svg width="14" height="14" viewBox="0 0 14 14" fill="none" xmlns="http://www.w3.org/2000/svg">
<path d="M7 0C3.13313 0 0 3.13313 0 7C0 10.8669 3.13313 14 7 14C10.8669 14 14 10.8669 14 7C14 3.13313 10.8669 0 7 0ZM4.34375 10.0591C4.30079 10.1323 4.23931 10.193 4.16547 10.235C4.09163 10.2769 4.00805 10.2987 3.92312 10.2981C3.83657 10.2989 3.75151 10.2755 3.6775 10.2306C3.62239 10.1987 3.57413 10.1562 3.53549 10.1056C3.49685 10.0549 3.46859 9.99715 3.45233 9.93557C3.43607 9.87398 3.43213 9.8098 3.44074 9.74669C3.44935 9.68358 3.47034 9.62279 3.5025 9.56781L3.98031 8.77344C4.00446 8.73244 4.03891 8.69846 4.08024 8.67489C4.12157 8.65132 4.16835 8.63897 4.21594 8.63906H4.28656C4.63312 8.63906 4.87563 8.8475 4.94625 9.04937L4.34375 10.0591ZM8.38906 8.49656L5.26 8.5H3.18031C3.11488 8.50028 3.05007 8.48726 2.98982 8.46174C2.92957 8.43621 2.87514 8.39872 2.82981 8.35153C2.78449 8.30433 2.74922 8.24842 2.72616 8.18719C2.70309 8.12596 2.6927 8.06068 2.69563 7.99531C2.70563 7.73281 2.93469 7.53406 3.19562 7.53406H4.70312L6.49031 4.49188L5.91156 3.50594C5.78125 3.28125 5.83906 2.985 6.0625 2.84375C6.11758 2.80812 6.1793 2.78401 6.24395 2.77285C6.30859 2.76168 6.37483 2.76371 6.43867 2.7788C6.50251 2.79389 6.56264 2.82174 6.61544 2.86067C6.66825 2.89959 6.71264 2.94879 6.74594 3.00531L7.05531 3.53375H7.05875L7.36844 3.00531C7.40178 2.94909 7.44609 2.90015 7.49875 2.86142C7.55141 2.82269 7.61133 2.79496 7.67493 2.77988C7.73853 2.7648 7.80452 2.76269 7.86896 2.77366C7.9334 2.78463 7.99497 2.80847 8.05 2.84375C8.27219 2.985 8.32938 3.28125 8.19812 3.50688L7.61938 4.49281L7.05688 5.45188L5.83531 7.535V7.53844H7.63562C7.86125 7.53844 8.14406 7.65969 8.25844 7.85469L8.26844 7.875C8.36938 8.04656 8.42656 8.16438 8.42656 8.33594C8.42493 8.39165 8.41251 8.44652 8.39 8.4975L8.38906 8.49656ZM10.8188 8.5H9.97156V8.50344L10.5909 9.55688C10.6575 9.66782 10.6779 9.80048 10.6477 9.92632C10.6175 10.0521 10.5391 10.1611 10.4294 10.2297C10.3533 10.2761 10.266 10.3006 10.1769 10.3006C10.0922 10.3006 10.0089 10.2786 9.93523 10.2369C9.86152 10.1952 9.79987 10.1351 9.75625 10.0625L8.84094 8.50438L8.27219 7.53563L7.53844 6.28125C7.43216 6.10214 7.37439 5.89843 7.37083 5.69019C7.36727 5.48196 7.41804 5.27639 7.51812 5.09375C7.66312 4.83781 7.77406 4.77063 7.77406 4.77063L9.40625 7.53125H10.8097C11.0722 7.53125 11.2975 7.73313 11.3097 7.99219C11.3122 8.05805 11.3014 8.12375 11.2779 8.18533C11.2544 8.24691 11.2187 8.3031 11.1729 8.35053C11.1272 8.39796 11.0723 8.43565 11.0116 8.46134C10.9509 8.48702 10.8856 8.50017 10.8197 8.5H10.8188Z" fill="white"/>
</svg>
