<svg width="14" height="14" viewBox="0 0 14 14" fill="none" xmlns="http://www.w3.org/2000/svg">
<path d="M13.8638 5.62905H13.3V5.6H7V8.4H10.956C10.3789 10.03 8.82805 11.2 7 11.2C4.68055 11.2 2.8 9.31945 2.8 7C2.8 4.68055 4.68055 2.8 7 2.8C8.07065 2.8 9.0447 3.2039 9.78635 3.86365L11.7663 1.8837C10.5161 0.71855 8.8438 0 7 0C3.13425 0 0 3.13425 0 7C0 10.8658 3.13425 14 7 14C10.8658 14 14 10.8658 14 7C14 6.53065 13.9517 6.0725 13.8638 5.62905Z" fill="#FFC107"/>
<path d="M0.806641 3.74185L3.10649 5.4285C3.72879 3.8878 5.23589 2.8 6.99954 2.8C8.07019 2.8 9.04424 3.2039 9.78589 3.86365L11.7658 1.8837C10.5156 0.71855 8.84334 0 6.99954 0C4.31084 0 1.97914 1.51795 0.806641 3.74185Z" fill="#FF3D00"/>
<path d="M7.0003 14C8.8084 14 10.4513 13.3081 11.6935 12.1828L9.52695 10.3495C8.80067 10.9022 7.91296 11.201 7.0003 11.2C5.1796 11.2 3.63365 10.0391 3.05125 8.41895L0.768555 10.1777C1.92705 12.4446 4.27975 14 7.0003 14Z" fill="#4CAF50"/>
<path d="M13.8639 5.62896H13.3V5.59991H7V8.39991H10.9561C10.68 9.17566 10.1827 9.85353 9.5256 10.3498L9.52665 10.3491L11.6932 12.1824C11.5399 12.3217 14 10.4999 14 6.99991C14 6.53056 13.9517 6.07241 13.8639 5.62896Z" fill="#1976D2"/>
</svg>
