<svg width="92" height="93" viewBox="0 0 92 93" fill="none" xmlns="http://www.w3.org/2000/svg">
<g clip-path="url(#clip0_2784_2452)">
<path d="M20.8943 61.2861C13.9574 63.3672 9.66675 66.2422 9.66675 69.4178C9.66675 75.769 26.8292 80.9178 48.0001 80.9178C69.171 80.9178 86.3334 75.769 86.3334 69.4178C86.3334 66.2422 82.0428 63.3672 75.1058 61.2861" stroke="#222222" stroke-linecap="round" stroke-linejoin="round"/>
<path d="M47.9999 65.5837C47.9999 65.5837 72.9166 49.2997 72.9166 30.4738C72.9166 17.0495 61.761 6.16699 47.9999 6.16699C34.2388 6.16699 23.0833 17.0495 23.0833 30.4738C23.0833 49.2997 47.9999 65.5837 47.9999 65.5837Z" stroke="#222222" stroke-linejoin="round"/>
<path d="M48 44.5C55.1796 44.5 61 38.6796 61 31.5C61 24.3204 55.1796 18.5 48 18.5C40.8204 18.5 35 24.3204 35 31.5C35 38.6796 40.8204 44.5 48 44.5Z" stroke="#222222" stroke-linejoin="round"/>
<path d="M48 41.5C53.5228 41.5 58 37.0228 58 31.5C58 25.9772 53.5228 21.5 48 21.5C42.4772 21.5 38 25.9772 38 31.5C38 37.0228 42.4772 41.5 48 41.5Z" fill="#9CFF1F"/>
</g>
<defs>
<clipPath id="clip0_2784_2452">
<rect width="92" height="92" fill="white" transform="translate(0 0.5)"/>
</clipPath>
</defs>
</svg>
