<svg width="159" height="107" viewBox="0 0 159 107" fill="none" xmlns="http://www.w3.org/2000/svg">
<path d="M5 101.379H8.79873" stroke="#25BE64" stroke-linecap="round"/>
<path d="M56.1709 101.379H59.9696" stroke="#25BE64" stroke-linecap="round"/>
<path d="M146.224 101.379H155.112" stroke="#25BE64" stroke-linecap="round"/>
<path d="M96.6162 90.7656L101.706 90.7656" stroke="#25BE64" stroke-linecap="round"/>
<path d="M34.3838 90.7656L43.7689 90.7656" stroke="#25BE64" stroke-linecap="round"/>
<path d="M48.3633 90.7656L62.7626 90.7656" stroke="#25BE64" stroke-linecap="round"/>
<path d="M105.22 90.7656L140.19 90.7656" stroke="#25BE64" stroke-linecap="round"/>
<path d="M11.2012 101.379H53.0566" stroke="#25BE64" stroke-linecap="round"/>
<path d="M61.3662 101.379H140.19" stroke="#25BE64" stroke-linecap="round"/>
<path d="M116.703 52.7781C116.703 71.9855 101.132 87.5562 81.9246 87.5562C62.7172 87.5562 47.1465 71.9855 47.1465 52.7781C47.1465 33.5707 62.7172 18 81.9246 18C101.132 18 116.703 33.5707 116.703 52.7781Z" fill="#1ACA75"/>
<path d="M76.9567 67.8897L62.2588 54.0199L70.4358 47.499L76.9567 54.0199L101.591 36.4238V40.7711C94.7184 44.8285 82.3045 60.5408 76.9567 67.8897Z" fill="white"/>
<circle cx="39.2874" cy="40.7318" r="1.73177" fill="#25BE64"/>
<circle cx="94.2874" cy="7.73177" r="1.73177" fill="#25BE64"/>
<circle cx="124.287" cy="58.7318" r="1.73177" fill="#25BE64"/>
<circle cx="82.0561" cy="53.5004" r="35.6" fill="#9CFF1F"/>
<path fill-rule="evenodd" clip-rule="evenodd" d="M102.181 39.6558C103.503 40.9403 103.534 43.0533 102.249 44.3753L79.9984 67.2743C78.7382 68.5713 76.6742 68.6286 75.344 67.4035L61.9946 55.1102C60.6387 53.8615 60.5518 51.7501 61.8004 50.3942C63.0491 49.0383 65.1605 48.9514 66.5164 50.2L77.4755 60.2923L97.4619 39.7236C98.7464 38.4016 100.859 38.3713 102.181 39.6558Z" fill="#0D0D0D"/>
</svg>
