<svg width="24" height="24" viewBox="0 0 24 24" fill="none" xmlns="http://www.w3.org/2000/svg">
<path d="M22 12C22 17.5228 17.5228 22 12 22C6.47715 22 2 17.5228 2 12C2 6.47715 6.47715 2 12 2C17.5228 2 22 6.47715 22 12Z" fill="#9CFF1F"/>
<path fill-rule="evenodd" clip-rule="evenodd" d="M17.6532 8.1117C18.0245 8.47252 18.0331 9.06605 17.6722 9.43738L11.4221 15.8697C11.0681 16.234 10.4883 16.2501 10.1146 15.906L6.36481 12.4528C5.98394 12.1021 5.95951 11.509 6.31026 11.1281C6.661 10.7472 7.25409 10.7228 7.63496 11.0736L10.7134 13.9085L16.3275 8.13073C16.6883 7.7594 17.2819 7.75087 17.6532 8.1117Z" fill="#222222"/>
</svg>
