<svg width="24" height="20" viewBox="0 0 24 20" fill="none" xmlns="http://www.w3.org/2000/svg">
<path fill-rule="evenodd" clip-rule="evenodd" d="M8.98755 7.97729C8.98755 6.32046 10.5546 4.97729 12.4875 4.97729C14.4205 4.97729 15.9875 6.32046 15.9875 7.97729C15.9875 9.63413 14.4205 10.9773 12.4875 10.9773C10.5546 10.9773 8.98755 9.63413 8.98755 7.97729ZM12.4875 6.29286C11.4022 6.29286 10.5224 7.04703 10.5224 7.97729C10.5224 8.90756 11.4022 9.66173 12.4875 9.66173C13.5729 9.66173 14.4527 8.90756 14.4527 7.97729C14.4527 7.04703 13.5729 6.29286 12.4875 6.29286Z" fill="#0D0D0D"/>
<path fill-rule="evenodd" clip-rule="evenodd" d="M7.98755 14.296C7.98755 11.9107 10.0023 9.97705 12.4875 9.97705C14.9728 9.97705 16.9875 11.9107 16.9875 14.296C16.9875 14.6721 16.6698 14.9771 16.2779 14.9771C15.886 14.9771 15.5683 14.6721 15.5683 14.296C15.5683 12.663 14.189 11.3392 12.4875 11.3392C10.7861 11.3392 9.40685 12.663 9.40685 14.296C9.40685 14.6721 9.08913 14.9771 8.6972 14.9771C8.30527 14.9771 7.98755 14.6721 7.98755 14.296Z" fill="#0D0D0D"/>
<path fill-rule="evenodd" clip-rule="evenodd" d="M5.68248e-08 7.65C2.54413e-08 7.29101 0.291015 7 0.65 7L4.3375 7C4.69649 7 4.9875 7.29101 4.9875 7.65C4.9875 8.00898 4.69649 8.3 4.3375 8.3L0.65 8.3C0.291015 8.3 8.82083e-08 8.00899 5.68248e-08 7.65Z" fill="#0D0D0D"/>
<path fill-rule="evenodd" clip-rule="evenodd" d="M5.68248e-08 13.65C2.54413e-08 13.291 0.291015 13 0.65 13L4.3375 13C4.69649 13 4.9875 13.291 4.9875 13.65C4.9875 14.009 4.69649 14.3 4.3375 14.3L0.65 14.3C0.291015 14.3 8.82083e-08 14.009 5.68248e-08 13.65Z" fill="#0D0D0D"/>
<path fill-rule="evenodd" clip-rule="evenodd" d="M5.68248e-08 10.65C2.54413e-08 10.291 0.291015 10 0.65 10L4.3375 10C4.69649 10 4.9875 10.291 4.9875 10.65C4.9875 11.009 4.69649 11.3 4.3375 11.3L0.65 11.3C0.291015 11.3 8.82083e-08 11.009 5.68248e-08 10.65Z" fill="#0D0D0D"/>
<path d="M2 6.68421V3C2 1.89543 2.89543 1 4 1H20C21.1046 1 22 1.89543 22 3V10V17C22 18.1046 21.1046 19 20 19H4C2.89543 19 2 18.1046 2 17V15.2105" stroke="#0D0D0D" stroke-width="1.8"/>
</svg>
