<svg width="20" height="20" viewBox="0 0 20 20" fill="none" xmlns="http://www.w3.org/2000/svg">
<g clip-path="url(#clip0_563_1605)">
<path fill-rule="evenodd" clip-rule="evenodd" d="M10.0003 18.3332C14.6027 18.3332 18.3337 14.6022 18.3337 9.99984C18.3337 5.39746 14.6027 1.6665 10.0003 1.6665C5.39795 1.6665 1.66699 5.39746 1.66699 9.99984C1.66699 14.6022 5.39795 18.3332 10.0003 18.3332Z" stroke="white" stroke-width="2" stroke-linecap="round" stroke-linejoin="round"/>
<path d="M1.66699 10H18.3337" stroke="white" stroke-width="2" stroke-linecap="round" stroke-linejoin="round"/>
<path fill-rule="evenodd" clip-rule="evenodd" d="M10.0003 18.3332C11.8413 18.3332 13.3337 14.6022 13.3337 9.99984C13.3337 5.39746 11.8413 1.6665 10.0003 1.6665C8.15937 1.6665 6.66699 5.39746 6.66699 9.99984C6.66699 14.6022 8.15937 18.3332 10.0003 18.3332Z" stroke="white" stroke-width="2" stroke-linecap="round" stroke-linejoin="round"/>
<path d="M4.10724 4.22587C5.61528 5.73391 7.69861 6.66666 9.99978 6.66666C12.301 6.66666 14.3843 5.73391 15.8924 4.22587" stroke="white" stroke-width="2" stroke-linecap="round" stroke-linejoin="round"/>
<path d="M15.8924 15.7741C14.3843 14.2661 12.301 13.3333 9.99978 13.3333C7.69861 13.3333 5.61528 14.2661 4.10724 15.7741" stroke="white" stroke-width="2" stroke-linecap="round" stroke-linejoin="round"/>
</g>
<defs>
<clipPath id="clip0_563_1605">
<rect width="20" height="20" fill="white"/>
</clipPath>
</defs>
</svg>
