<svg width="20" height="20" viewBox="0 0 20 20" fill="none" xmlns="http://www.w3.org/2000/svg">
<path d="M15.8333 1.6665H4.16659C3.70635 1.6665 3.33325 2.0396 3.33325 2.49984V17.4998C3.33325 17.9601 3.70635 18.3332 4.16659 18.3332H15.8333C16.2935 18.3332 16.6666 17.9601 16.6666 17.4998V2.49984C16.6666 2.0396 16.2935 1.6665 15.8333 1.6665Z" stroke="#222222" stroke-width="1.5" stroke-linejoin="round"/>
<path d="M8.75 5.8335H13.75" stroke="#222222" stroke-width="1.5" stroke-linecap="round" stroke-linejoin="round"/>
<path d="M8.75 10H13.75" stroke="#222222" stroke-width="1.5" stroke-linecap="round" stroke-linejoin="round"/>
<path d="M8.75 14.1665H13.75" stroke="#222222" stroke-width="1.5" stroke-linecap="round" stroke-linejoin="round"/>
<path d="M6.24976 5.75C6.29568 5.75 6.33357 5.78712 6.33374 5.83301C6.33374 5.87904 6.29579 5.91699 6.24976 5.91699C6.20387 5.91682 6.16675 5.87894 6.16675 5.83301C6.16692 5.78723 6.20398 5.75017 6.24976 5.75Z" fill="black" stroke="#222222" stroke-width="1.5"/>
<path d="M6.24976 9.9165C6.29568 9.9165 6.33357 9.95362 6.33374 9.99951C6.33374 10.0455 6.29579 10.0835 6.24976 10.0835C6.20387 10.0833 6.16675 10.0454 6.16675 9.99951C6.16692 9.95373 6.20398 9.91668 6.24976 9.9165Z" fill="black" stroke="#222222" stroke-width="1.5"/>
<path d="M6.24976 14.0835C6.29568 14.0835 6.33357 14.1206 6.33374 14.1665C6.33374 14.2125 6.29579 14.2505 6.24976 14.2505C6.20387 14.2503 6.16675 14.2124 6.16675 14.1665C6.16692 14.1207 6.20398 14.0837 6.24976 14.0835Z" fill="black" stroke="#222222" stroke-width="1.5"/>
</svg>
