<svg width="20" height="20" viewBox="0 0 20 20" fill="none" xmlns="http://www.w3.org/2000/svg">
<path fill-rule="evenodd" clip-rule="evenodd" d="M1.51855 9.22786C1.51855 4.97069 4.96971 1.51953 9.22689 1.51953C13.4841 1.51953 16.9352 4.97069 16.9352 9.22786C16.9352 13.485 13.4841 16.9362 9.22689 16.9362C4.96971 16.9362 1.51855 13.485 1.51855 9.22786ZM9.22689 2.76953C5.66007 2.76953 2.76855 5.66104 2.76855 9.22786C2.76855 12.7947 5.66007 15.6862 9.22689 15.6862C12.7937 15.6862 15.6852 12.7947 15.6852 9.22786C15.6852 5.66104 12.7937 2.76953 9.22689 2.76953Z" fill="#222222"/>
<path fill-rule="evenodd" clip-rule="evenodd" d="M13.8775 13.8779C14.1216 13.6338 14.5173 13.6338 14.7614 13.8779L18.2969 17.4134C18.541 17.6575 18.541 18.0532 18.2969 18.2973C18.0529 18.5414 17.6571 18.5414 17.4131 18.2973L13.8775 14.7618C13.6334 14.5177 13.6334 14.122 13.8775 13.8779Z" fill="#222222"/>
</svg>
