<svg width="32" height="33" viewBox="0 0 32 33" fill="none" xmlns="http://www.w3.org/2000/svg">
<rect x="18.8203" y="6.1524" width="10.9565" height="2.43478" fill="#656673"/>
<rect x="7.86719" y="28.0645" width="14.6087" height="2.43478" fill="#656673"/>
<rect x="7.86719" y="17.1094" width="2.43478" height="13.3913" fill="#656673"/>
<rect x="27.3477" y="6.1524" width="2.43478" height="17.0435" fill="#656673"/>
<rect x="24.9102" y="23.1954" width="2.43478" height="2.43478" fill="#656673"/>
<rect x="20.0391" y="20.7618" width="7.30435" height="2.43478" fill="#656673"/>
<rect x="22.4766" y="25.6309" width="2.43478" height="2.43478" fill="#656673"/>
<rect x="20.0391" y="20.7618" width="2.43478" height="9.73913" fill="#656673"/>
<rect x="10.3008" y="2.50006" width="12.1739" height="2.43478" transform="rotate(90 10.3008 2.50006)" fill="#656673"/>
<rect x="12.7383" y="4.93365" width="2.43478" height="2.43478" transform="rotate(90 12.7383 4.93365)" fill="#656673"/>
<rect x="15.1758" y="7.37115" width="2.43478" height="2.43478" transform="rotate(90 15.1758 7.37115)" fill="#656673"/>
<rect x="7.86719" y="4.93365" width="2.43478" height="2.43478" transform="rotate(90 7.86719 4.93365)" fill="#656673"/>
<rect x="5.42969" y="7.37115" width="2.43478" height="2.43478" transform="rotate(90 5.42969 7.37115)" fill="#656673"/>
</svg>
