<svg width="20" height="20" viewBox="0 0 20 20" fill="none" xmlns="http://www.w3.org/2000/svg">
<circle cx="9.45825" cy="9.31152" r="8.125" fill="#39A882"/>
<path d="M5.84217 7.99334V6.08425H13.4274V7.99334H10.8024V14.8115H8.46717V7.99334H5.84217Z" fill="#F2F2F2"/>
<g opacity="0.3" filter="url(#filter0_f_0_6037)">
<path d="M14.1685 10.3505C14.1685 10.3505 14.1682 10.3509 14.1676 10.3517L14.1685 10.3505ZM13.9586 10.3097C14.0318 10.3403 14.0839 10.3683 14.1191 10.3918C14.0839 10.4153 14.0318 10.4434 13.9586 10.4739C13.7588 10.5573 13.4552 10.6376 13.0621 10.707C12.2797 10.8451 11.1893 10.9318 9.97835 10.9318C8.76736 10.9318 7.67698 10.8451 6.89465 10.707C6.50153 10.6376 6.19788 10.5573 5.99811 10.4739C5.92485 10.4434 5.87277 10.4153 5.83764 10.3918C5.87277 10.3683 5.92485 10.3403 5.99811 10.3097C6.19788 10.2264 6.50153 10.146 6.89465 10.0766C7.67698 9.93856 8.76736 9.85182 9.97835 9.85182C11.1893 9.85182 12.2797 9.93856 13.0621 10.0766C13.4552 10.146 13.7588 10.2264 13.9586 10.3097ZM5.78824 10.3505C5.78828 10.3505 5.7886 10.3509 5.78911 10.3517L5.78824 10.3505ZM5.78824 10.4331C5.78821 10.4331 5.78847 10.4327 5.78911 10.4319L5.78824 10.4331ZM14.1676 10.4319C14.1682 10.4327 14.1685 10.4331 14.1685 10.4331L14.1676 10.4319Z" stroke="white" stroke-width="0.48"/>
</g>
<defs>
<filter id="filter0_f_0_6037" x="5.43835" y="9.49182" width="9.08009" height="1.80006" filterUnits="userSpaceOnUse" color-interpolation-filters="sRGB">
<feFlood flood-opacity="0" result="BackgroundImageFix"/>
<feBlend mode="normal" in="SourceGraphic" in2="BackgroundImageFix" result="shape"/>
<feGaussianBlur stdDeviation="0.06" result="effect1_foregroundBlur_0_6037"/>
</filter>
</defs>
</svg>
