<svg width="32" height="32" viewBox="0 0 32 32" fill="none" xmlns="http://www.w3.org/2000/svg">
<rect x="2.5" y="2.5" width="27" height="27" rx="5.5" stroke="#4E4E4E"/>
<path d="M22.8638 14.629H22.3V14.6H16V17.4H19.956C19.3789 19.03 17.828 20.2 16 20.2C13.6806 20.2 11.8 18.3194 11.8 16C11.8 13.6806 13.6806 11.8 16 11.8C17.0707 11.8 18.0447 12.2039 18.7864 12.8636L20.7663 10.8837C19.5161 9.71855 17.8438 9 16 9C12.1342 9 9 12.1342 9 16C9 19.8658 12.1342 23 16 23C19.8658 23 23 19.8658 23 16C23 15.5307 22.9517 15.0725 22.8638 14.629Z" fill="#FFC107"/>
<path d="M9.80664 12.7418L12.1065 14.4285C12.7288 12.8878 14.2359 11.8 15.9995 11.8C17.0702 11.8 18.0442 12.2039 18.7859 12.8636L20.7658 10.8837C19.5156 9.71855 17.8433 9 15.9995 9C13.3108 9 10.9791 10.5179 9.80664 12.7418Z" fill="#FF3D00"/>
<path d="M16.0003 23C17.8084 23 19.4513 22.3081 20.6935 21.1828L18.527 19.3495C17.8007 19.9022 16.913 20.201 16.0003 20.2C14.1796 20.2 12.6337 19.0391 12.0513 17.4189L9.76855 19.1777C10.9271 21.4446 13.2798 23 16.0003 23Z" fill="#4CAF50"/>
<path d="M22.8639 14.629H22.3V14.5999H16V17.3999H19.9561C19.68 18.1757 19.1827 18.8535 18.5256 19.3498L18.5266 19.3491L20.6932 21.1824C20.5399 21.3217 23 19.4999 23 15.9999C23 15.5306 22.9517 15.0724 22.8639 14.629Z" fill="#1976D2"/>
</svg>
