<svg width="32" height="32" viewBox="0 0 32 32" fill="none" xmlns="http://www.w3.org/2000/svg">
<rect x="2.5" y="2.5" width="27" height="27" rx="5.5" stroke="#4E4E4E"/>
<path d="M16 9C12.1331 9 9 12.1331 9 16C9 19.8669 12.1331 23 16 23C19.8669 23 23 19.8669 23 16C23 12.1331 19.8669 9 16 9ZM13.3438 19.0591C13.3008 19.1323 13.2393 19.193 13.1655 19.235C13.0916 19.2769 13.0081 19.2987 12.9231 19.2981C12.8366 19.2989 12.7515 19.2755 12.6775 19.2306C12.6224 19.1987 12.5741 19.1562 12.5355 19.1056C12.4969 19.0549 12.4686 18.9972 12.4523 18.9356C12.4361 18.874 12.4321 18.8098 12.4407 18.7467C12.4494 18.6836 12.4703 18.6228 12.5025 18.5678L12.9803 17.7734C13.0045 17.7324 13.0389 17.6985 13.0802 17.6749C13.1216 17.6513 13.1684 17.639 13.2159 17.6391H13.2866C13.6331 17.6391 13.8756 17.8475 13.9462 18.0494L13.3438 19.0591ZM17.3891 17.4966L14.26 17.5H12.1803C12.1149 17.5003 12.0501 17.4873 11.9898 17.4617C11.9296 17.4362 11.8751 17.3987 11.8298 17.3515C11.7845 17.3043 11.7492 17.2484 11.7262 17.1872C11.7031 17.126 11.6927 17.0607 11.6956 16.9953C11.7056 16.7328 11.9347 16.5341 12.1956 16.5341H13.7031L15.4903 13.4919L14.9116 12.5059C14.7812 12.2812 14.8391 11.985 15.0625 11.8438C15.1176 11.8081 15.1793 11.784 15.2439 11.7728C15.3086 11.7617 15.3748 11.7637 15.4387 11.7788C15.5025 11.7939 15.5626 11.8217 15.6154 11.8607C15.6682 11.8996 15.7126 11.9488 15.7459 12.0053L16.0553 12.5338H16.0588L16.3684 12.0053C16.4018 11.9491 16.4461 11.9001 16.4988 11.8614C16.5514 11.8227 16.6113 11.795 16.6749 11.7799C16.7385 11.7648 16.8045 11.7627 16.869 11.7737C16.9334 11.7846 16.995 11.8085 17.05 11.8438C17.2722 11.985 17.3294 12.2812 17.1981 12.5069L16.6194 13.4928L16.0569 14.4519L14.8353 16.535V16.5384H16.6356C16.8612 16.5384 17.1441 16.6597 17.2584 16.8547L17.2684 16.875C17.3694 17.0466 17.4266 17.1644 17.4266 17.3359C17.4249 17.3916 17.4125 17.4465 17.39 17.4975L17.3891 17.4966ZM19.8188 17.5H18.9716V17.5034L19.5909 18.5569C19.6575 18.6678 19.6779 18.8005 19.6477 18.9263C19.6175 19.0521 19.5391 19.1611 19.4294 19.2297C19.3533 19.2761 19.266 19.3006 19.1769 19.3006C19.0922 19.3006 19.0089 19.2786 18.9352 19.2369C18.8615 19.1952 18.7999 19.1351 18.7563 19.0625L17.8409 17.5044L17.2722 16.5356L16.5384 15.2812C16.4322 15.1021 16.3744 14.8984 16.3708 14.6902C16.3673 14.482 16.418 14.2764 16.5181 14.0938C16.6631 13.8378 16.7741 13.7706 16.7741 13.7706L18.4062 16.5312H19.8097C20.0722 16.5312 20.2975 16.7331 20.3097 16.9922C20.3122 17.0581 20.3014 17.1237 20.2779 17.1853C20.2544 17.2469 20.2187 17.3031 20.1729 17.3505C20.1272 17.398 20.0723 17.4357 20.0116 17.4613C19.9509 17.487 19.8856 17.5002 19.8197 17.5H19.8188Z" fill="white"/>
</svg>
