<svg width="24" height="25" viewBox="0 0 24 25" fill="none" xmlns="http://www.w3.org/2000/svg">
<path d="M19.4 20.75H9.6C9.44087 20.75 9.28826 20.6868 9.17574 20.5743C9.06321 20.4617 9 20.3091 9 20.15V10.35C9 10.1909 9.06321 10.0383 9.17574 9.92574C9.28826 9.81321 9.44087 9.75 9.6 9.75H19.4C19.5591 9.75 19.7117 9.81321 19.8243 9.92574C19.9368 10.0383 20 10.1909 20 10.35V20.15C20 20.3091 19.9368 20.4617 19.8243 20.5743C19.7117 20.6868 19.5591 20.75 19.4 20.75Z" stroke="#666666" stroke-width="1.5" stroke-linecap="round" stroke-linejoin="round"/>
<path d="M15 9.75V5.35C15 5.19087 14.9368 5.03826 14.8243 4.92574C14.7117 4.81321 14.5591 4.75 14.4 4.75H4.6C4.44087 4.75 4.28826 4.81321 4.17574 4.92574C4.06321 5.03826 4 5.19087 4 5.35V15.15C4 15.3091 4.06321 15.4617 4.17574 15.5743C4.28826 15.6868 4.44087 15.75 4.6 15.75H9" stroke="#666666" stroke-width="1.5" stroke-linecap="round" stroke-linejoin="round"/>
</svg>
