<svg width="16" height="16" viewBox="0 0 16 16" fill="none" xmlns="http://www.w3.org/2000/svg">
<path fill-rule="evenodd" clip-rule="evenodd" d="M1.6001 3.16271C1.6001 2.2996 2.29978 1.59991 3.16289 1.59991H12.8373C13.7004 1.59991 14.4001 2.29961 14.4001 3.16271V12.8371C14.4001 13.7002 13.7004 14.3999 12.8373 14.3999H3.16289C2.29979 14.3999 1.6001 13.7003 1.6001 12.8371V3.16271ZM3.16289 2.49294C2.79299 2.49294 2.49312 2.7928 2.49312 3.16271V12.8371C2.49312 13.207 2.79298 13.5069 3.16289 13.5069H12.8373C13.2072 13.5069 13.5071 13.207 13.5071 12.8371V3.16271C13.5071 2.7928 13.2072 2.49294 12.8373 2.49294H3.16289Z" fill="#999999"/>
</svg>
