<svg width="16" height="17" viewBox="0 0 16 17" fill="none" xmlns="http://www.w3.org/2000/svg">
<path d="M13.4168 1.83331H2.5835C1.89314 1.83331 1.3335 2.39296 1.3335 3.08331V13.9166C1.3335 14.607 1.89314 15.1666 2.5835 15.1666H13.4168C14.1072 15.1666 14.6668 14.607 14.6668 13.9166V3.08331C14.6668 2.39296 14.1072 1.83331 13.4168 1.83331Z" fill="#86FC70"/>
<path fill-rule="evenodd" clip-rule="evenodd" d="M11.7689 5.8511C12.0165 6.09165 12.0222 6.48734 11.7816 6.7349L7.61484 11.0231C7.37883 11.266 6.99233 11.2767 6.74321 11.0473L4.24334 8.74518C3.98942 8.51135 3.97314 8.11596 4.20697 7.86205C4.4408 7.60813 4.83619 7.59185 5.0901 7.82568L7.14239 9.71562L10.8851 5.8638C11.1257 5.61624 11.5214 5.61056 11.7689 5.8511Z" fill="#222222"/>
</svg>
