<svg width="24" height="24" viewBox="0 0 24 24" fill="none" xmlns="http://www.w3.org/2000/svg">
<path d="M21.3463 7.33513C21.7137 7.52639 21.8565 7.97928 21.6653 8.3467C21.2927 9.06241 20.7402 9.70399 20.064 10.2582C19.9287 10.369 19.788 10.4768 19.6422 10.5814L22.0355 12.9747C22.3284 13.2676 22.3284 13.7425 22.0355 14.0354C21.7426 14.3283 21.2677 14.3283 20.9748 14.0354L18.3146 11.3752C17.435 11.8131 16.4412 12.1581 15.3706 12.393L16.2485 15.6695C16.3557 16.0696 16.1182 16.4809 15.7181 16.5881C15.318 16.6953 14.9068 16.4578 14.7996 16.0577L13.8842 12.6415C13.2718 12.7132 12.6417 12.7504 12 12.7504C11.3542 12.7504 10.7202 12.7127 10.104 12.6401L9.18831 16.0578C9.08111 16.4579 8.66986 16.6953 8.26976 16.5881C7.86966 16.4809 7.63222 16.0697 7.73942 15.6696L8.618 12.3905C7.55309 12.1559 6.56445 11.8124 5.68884 11.3769L3.03033 14.0354C2.73744 14.3283 2.26257 14.3283 1.96967 14.0354C1.67678 13.7426 1.67678 13.2677 1.96967 12.9748L4.36086 10.5836C4.2139 10.4783 4.07218 10.3698 3.93598 10.2582C3.25975 9.70399 2.70731 9.06241 2.33474 8.34671C2.14348 7.97929 2.28628 7.5264 2.65369 7.33514C3.0211 7.14388 3.474 7.28668 3.66526 7.65409C3.92741 8.15769 4.3367 8.64721 4.88678 9.09802C6.44066 10.3715 9.01774 11.2504 12 11.2504C14.9823 11.2504 17.5593 10.3716 19.1132 9.09803C19.6633 8.64721 20.0726 8.15768 20.3347 7.6541C20.526 7.28668 20.9789 7.14388 21.3463 7.33513Z" fill="#666666"/>
</svg>
