<svg width="16" height="16" viewBox="0 0 16 16" fill="none" xmlns="http://www.w3.org/2000/svg">
<path d="M8.00041 3.46655C10.1829 3.4667 11.9083 4.5798 13.0629 5.64722C13.6435 6.18403 14.0917 6.72023 14.3949 7.12183C14.5468 7.32294 14.6634 7.49144 14.7426 7.61108C14.7822 7.67089 14.8125 7.71917 14.8334 7.75269C14.8438 7.76926 14.8521 7.78238 14.8578 7.79175L14.8647 7.80249L14.8666 7.8064L14.8676 7.80737C14.9678 7.97669 14.9594 8.19047 14.8461 8.35132L14.8451 8.35327L14.8422 8.3562L14.8354 8.36694L14.808 8.40405C14.7845 8.43597 14.7497 8.48144 14.7055 8.53882C14.6171 8.65353 14.4886 8.81611 14.3227 9.00952C13.9913 9.39577 13.5095 9.91083 12.9086 10.4275C11.7198 11.4496 9.99607 12.5338 8.00041 12.5339C6.00455 12.5339 4.28014 11.4496 3.09123 10.4275C2.49031 9.91083 2.00853 9.39576 1.67717 9.00952C1.51122 8.81609 1.38276 8.65353 1.29436 8.53882C1.25013 8.48144 1.2153 8.43597 1.19182 8.40405L1.16545 8.36694L1.15764 8.3562L1.15471 8.35327V8.35229C1.04131 8.19151 1.03218 7.97773 1.13225 7.80835L1.13518 7.80249L1.14201 7.79175C1.1477 7.78239 1.15609 7.76924 1.16643 7.75269C1.18735 7.71918 1.21768 7.67087 1.25725 7.61108C1.33642 7.49145 1.45306 7.32292 1.6049 7.12183C1.90815 6.72023 2.3563 6.18403 2.93693 5.64722C4.09164 4.57971 5.81768 3.46655 8.00041 3.46655ZM8.00041 4.46655C6.17038 4.46655 4.6764 5.40091 3.61564 6.38159C3.08855 6.86891 2.6795 7.35786 2.40275 7.72437C2.31171 7.84494 2.23551 7.95202 2.17424 8.04077C2.24463 8.12922 2.33282 8.2368 2.43693 8.35815C2.74428 8.71639 3.19007 9.19382 3.74357 9.66968C4.86416 10.633 6.35964 11.5339 8.00041 11.5339C9.64098 11.5338 11.1358 10.6329 12.2563 9.66968C12.8099 9.19368 13.2565 8.71642 13.5639 8.35815C13.6679 8.23686 13.7552 8.12918 13.8256 8.04077C13.7643 7.95201 13.6881 7.84494 13.5971 7.72437C13.3203 7.35786 12.9113 6.86891 12.3842 6.38159C11.3235 5.40101 9.83021 4.46671 8.00041 4.46655ZM7.99943 5.7644C9.23437 5.7644 10.2357 6.76581 10.2358 8.00073C10.2358 9.23572 9.23442 10.2371 7.99943 10.2371C6.76466 10.2368 5.76408 9.23556 5.76408 8.00073C5.76416 6.76596 6.76471 5.76465 7.99943 5.7644ZM7.99943 6.7644C7.31699 6.76465 6.76416 7.31825 6.76408 8.00073C6.76408 8.68328 7.31694 9.23681 7.99943 9.23706C8.68214 9.23706 9.23576 8.68343 9.23576 8.00073C9.23569 7.31809 8.68209 6.7644 7.99943 6.7644Z" fill="#222222"/>
</svg>
