<svg width="30" height="30" viewBox="0 0 30 30" fill="none" xmlns="http://www.w3.org/2000/svg">
<path d="M15 29C22.732 29 29 22.732 29 15C29 7.26801 22.732 1 15 1C7.26801 1 1 7.26801 1 15C1 22.732 7.26801 29 15 29Z" fill="#F9AB4B"/>
<path d="M21.2909 13.2675C21.5656 11.4335 20.1683 10.4474 18.259 9.78937L18.8785 7.30437L17.3665 6.92813L16.7628 9.3475C16.3655 9.24775 15.9578 9.155 15.5509 9.06225L16.159 6.62713L14.647 6.25L14.0275 8.73412C13.6979 8.66004 13.3759 8.58421 13.0615 8.50663L13.0633 8.49875L10.9773 7.97812L10.5748 9.59337C10.5748 9.59337 11.6974 9.85063 11.6738 9.86637C12.2863 10.0195 12.3965 10.4246 12.3781 10.7466L11.6729 13.5772C11.7155 13.5872 11.768 13.6038 11.8304 13.6271L11.6703 13.5877L10.6815 17.5532C10.6063 17.7387 10.4164 18.0179 9.98763 17.912C10.0034 17.9339 8.88863 17.6381 8.88863 17.6381L8.13788 19.3689L10.1066 19.8597C10.4724 19.9516 10.8311 20.0479 11.1838 20.138L10.5581 22.651L12.0693 23.0272L12.6888 20.5422C13.1012 20.6531 13.5031 20.7572 13.8945 20.8546L13.2768 23.3291L14.7888 23.7054L15.4144 21.1976C17.9939 21.6859 19.9329 21.489 20.7493 19.1562C21.4073 17.2785 20.7169 16.1944 19.3598 15.4882C20.3485 15.2607 21.0923 14.6106 21.2909 13.2675ZM17.8346 18.1132C17.3683 19.9919 14.2051 18.976 13.1796 18.7214L14.0109 15.392C15.0364 15.6484 18.3238 16.155 17.8346 18.1132ZM18.3028 13.2404C17.8766 14.9492 15.2446 14.0804 14.3915 13.8677L15.144 10.849C15.9971 11.0616 18.7473 11.458 18.3028 13.2404Z" fill="white"/>
</svg>
