<svg width="30" height="30" viewBox="0 0 30 30" fill="none" xmlns="http://www.w3.org/2000/svg">
<path d="M18.5469 16.5639C18.117 18.2961 17.208 19.8427 15.9707 21.059C17.3139 21.988 18.9422 22.5311 20.6954 22.5311C25.2754 22.5311 28.9998 18.8235 28.9998 14.2655C28.9998 9.70758 25.2754 5.99997 20.6954 5.99997C18.9422 5.99997 17.3128 6.54311 15.9707 7.47211C17.208 8.68841 18.117 10.235 18.5469 11.9672C19.1111 11.446 19.865 11.1252 20.6954 11.1252C22.4349 11.1252 23.8494 12.5334 23.8494 14.2645C23.8494 15.9956 22.4349 17.4038 20.6954 17.4038C19.865 17.4038 19.1111 17.083 18.5469 16.5618V16.5639Z" fill="#949494"/>
<path d="M9.30437 22.532C4.72543 22.532 1 18.8244 1 14.2665C1 9.70848 4.72543 6.00192 9.30437 6.00192C13.8833 6.00192 17.6087 9.70953 17.6087 14.2675C17.6087 18.8255 13.8833 22.5331 9.30437 22.5331V22.532ZM9.30437 11.1271C7.56486 11.1271 6.15039 12.5353 6.15039 14.2665C6.15039 15.9976 7.56591 17.4058 9.30437 17.4058C11.0428 17.4058 12.4584 15.9976 12.4584 14.2665C12.4584 12.5353 11.0428 11.1271 9.30437 11.1271Z" fill="#505050"/>
</svg>
