<svg width="27" height="27" viewBox="0 0 27 27" fill="none" xmlns="http://www.w3.org/2000/svg">
<rect x="0.5" y="0.5" width="26.0417" height="26.0417" rx="4.375" fill="#524748"/>
<mask id="mask0_0_6418" style="mask-type:alpha" maskUnits="userSpaceOnUse" x="0" y="0" width="27" height="27">
<rect x="0.5" y="0.5" width="26.0417" height="26.0417" rx="4.375" fill="#FFA07D"/>
</mask>
<g mask="url(#mask0_0_6418)">
<path d="M24.9587 22.8794C24.428 21.7048 23.0199 20.8342 19.6742 20.2068C19.601 20.193 19.5277 20.1791 19.4517 20.1653C19.1104 20.1045 18.7497 20.0451 18.3683 19.9884C18.3572 19.9871 18.3462 19.9843 18.3351 19.9829C18.3351 19.9829 17.1854 22.3267 16.3755 23.3907C15.5657 24.4562 14.8209 25.0311 14.8209 25.0311L13.4528 22.0682L12.0847 25.0311C12.0847 25.0311 11.3384 24.4562 10.53 23.3907C9.72017 22.3253 8.5704 19.9829 8.5704 19.9829C8.55935 19.9843 8.54829 19.9871 8.53724 19.9884C8.15582 20.0451 7.79514 20.1045 7.4538 20.1653C7.3778 20.1791 7.30456 20.193 7.23131 20.2068C3.88428 20.8342 2.47609 21.7062 1.94682 22.8794C1.34982 24.2006 0.881348 31.2291 0.881348 31.2291H26.0242C26.0242 31.2291 25.5557 24.2006 24.9587 22.8794Z" fill="#39342D"/>
<path d="M13.4514 14.801H10.0491V19.2025C10.0491 19.8561 11.1284 21.929 13.4514 21.929C15.7744 21.929 16.8537 19.8561 16.8537 19.2025V14.801H13.4514Z" fill="#DDB597"/>
<path d="M9.10129 11.6625C8.83181 10.6537 8.46284 10.6537 8.30668 10.9094C8.15052 11.165 8.68947 12.1587 8.70468 12.9685C8.71849 13.7783 8.95895 13.8999 9.25745 13.6042C9.55594 13.3084 9.10129 11.6612 9.10129 11.6612V11.6625Z" fill="#5C391A"/>
<path d="M14.3649 22.0681H13.4514H12.5379L11.7502 23.4556L12.4136 24.5943H13.4514H14.4906L15.1539 23.4556L14.3649 22.0681Z" fill="#DFDFDF"/>
<path d="M11.3067 19.9829L10.0491 18.876C9.44247 19.2173 8.56909 19.9829 8.56909 19.9829C8.56909 19.9829 9.71886 22.3267 10.5287 23.3907C11.3385 24.4562 12.0833 25.0311 12.0833 25.0311L13.4514 22.0682V21.872L11.3067 19.9829Z" fill="#0D0D0D"/>
<path d="M13.4515 6.08228C9.61802 6.08228 9.05005 8.82817 9.05005 12.2167C9.05005 15.9658 10.754 18.351 13.4515 18.351C16.149 18.351 17.8529 15.9658 17.8529 12.2167C17.8529 8.82817 17.285 6.08228 13.4515 6.08228Z" fill="#FFE4D5"/>
<path d="M17.8016 11.6625C18.0711 10.6537 18.4401 10.6537 18.5963 10.9094C18.7524 11.165 18.2135 12.1587 18.1983 12.9685C18.1844 13.7783 17.944 13.8999 17.6455 13.6042C17.347 13.3084 17.8016 11.6612 17.8016 11.6612V11.6625Z" fill="#5C391A"/>
<path d="M14.4906 24.5947H13.4514H12.4136L11.7502 31.2294H13.4514H15.1539L14.4906 24.5947Z" fill="#DFDFDF"/>
<path d="M15.5974 19.9829L16.8549 18.876C17.4616 19.2173 18.335 19.9829 18.335 19.9829C18.335 19.9829 17.1852 22.3267 16.3754 23.3907C15.5656 24.4562 14.8207 25.0311 14.8207 25.0311L13.4526 22.0682V21.872L15.5974 19.9829Z" fill="#0D0D0D"/>
<path d="M18.0366 6.66386C17.5654 4.70291 15.9223 3.625 13.4514 3.625C10.9805 3.625 9.3374 4.70291 8.86616 6.66386C8.18487 9.49544 8.95184 12.0824 9.04305 12.3394C9.4521 12.421 9.23375 11.1344 9.42861 9.61705C9.57647 8.47143 9.98967 8.0071 10.6171 7.83574C9.47559 8.82658 9.74092 10.554 9.74092 10.554C9.74092 10.554 9.98276 9.88652 10.7345 8.97721C11.4877 8.0679 12.3376 7.81916 13.4514 7.81916C15.6528 7.81916 17.1619 7.18761 17.4742 9.61566C17.6691 11.133 17.4507 12.4196 17.8598 12.3381C17.951 12.081 18.7166 9.49405 18.0366 6.66248V6.66386Z" fill="#150521"/>
</g>
</svg>
